<svg xmlns="http://www.w3.org/2000/svg" viewBox="0 0 32 38" shape-rendering="crispEdges" width="128" height="152"><rect x="15" y="0" width="2" height="1" fill="#4fae2f"/><rect x="13" y="1" width="2" height="1" fill="#7cc63f"/><rect x="15" y="1" width="2" height="1" fill="#4fae2f"/><rect x="17" y="1" width="2" height="1" fill="#7cc63f"/><rect x="12" y="2" width="8" height="1" fill="#f3cb5e"/><rect x="11" y="3" width="10" height="1" fill="#d9a52f"/><rect x="10" y="4" width="12" height="1" fill="#f3cb5e"/><rect x="9" y="5" width="14" height="1" fill="#f3cb5e"/><rect x="9" y="6" width="14" height="1" fill="#2e7d32"/><rect x="4" y="7" width="24" height="1" fill="#f3cb5e"/><rect x="3" y="8" width="26" height="1" fill="#d9a52f"/><rect x="4" y="9" width="24" height="1" fill="#b98321"/><rect x="9" y="10" width="1" height="1" fill="#181818"/><rect x="10" y="10" width="12" height="1" fill="#f7f4ea"/><rect x="22" y="10" width="1" height="1" fill="#181818"/><rect x="7" y="11" width="1" height="1" fill="#181818"/><rect x="8" y="11" width="16" height="1" fill="#f7f4ea"/><rect x="24" y="11" width="1" height="1" fill="#181818"/><rect x="6" y="12" width="1" height="1" fill="#181818"/><rect x="7" y="12" width="1" height="1" fill="#f7f4ea"/><rect x="8" y="12" width="3" height="1" fill="#181818"/><rect x="11" y="12" width="11" height="1" fill="#f7f4ea"/><rect x="22" y="12" width="4" height="1" fill="#181818"/><rect x="5" y="13" width="1" height="1" fill="#181818"/><rect x="6" y="13" width="1" height="1" fill="#f7f4ea"/><rect x="7" y="13" width="1" height="1" fill="#181818"/><rect x="8" y="13" width="3" height="1" fill="#f7f4ea"/><rect x="11" y="13" width="2" height="1" fill="#181818"/><rect x="13" y="13" width="7" height="1" fill="#f7f4ea"/><rect x="20" y="13" width="2" height="1" fill="#181818"/><rect x="22" y="13" width="3" height="1" fill="#f7f4ea"/><rect x="25" y="13" width="2" height="1" fill="#181818"/><rect x="4" y="14" width="1" height="1" fill="#181818"/><rect x="5" y="14" width="22" height="1" fill="#f7f4ea"/><rect x="27" y="14" width="1" height="1" fill="#181818"/><rect x="4" y="15" width="1" height="1" fill="#181818"/><rect x="5" y="15" width="4" height="1" fill="#f7f4ea"/><rect x="9" y="15" width="3" height="1" fill="#181818"/><rect x="12" y="15" width="9" height="1" fill="#f7f4ea"/><rect x="21" y="15" width="3" height="1" fill="#181818"/><rect x="24" y="15" width="3" height="1" fill="#f7f4ea"/><rect x="27" y="15" width="1" height="1" fill="#181818"/><rect x="3" y="16" width="1" height="1" fill="#181818"/><rect x="4" y="16" width="5" height="1" fill="#f7f4ea"/><rect x="9" y="16" width="2" height="1" fill="#181818"/><rect x="11" y="16" width="11" height="1" fill="#f7f4ea"/><rect x="22" y="16" width="2" height="1" fill="#181818"/><rect x="24" y="16" width="4" height="1" fill="#f7f4ea"/><rect x="28" y="16" width="1" height="1" fill="#181818"/><rect x="3" y="17" width="1" height="1" fill="#181818"/><rect x="4" y="17" width="24" height="1" fill="#f7f4ea"/><rect x="28" y="17" width="1" height="1" fill="#181818"/><rect x="3" y="18" width="1" height="1" fill="#181818"/><rect x="4" y="18" width="12" height="1" fill="#f7f4ea"/><rect x="16" y="18" width="1" height="1" fill="#181818"/><rect x="17" y="18" width="11" height="1" fill="#f7f4ea"/><rect x="28" y="18" width="1" height="1" fill="#181818"/><rect x="3" y="19" width="1" height="1" fill="#181818"/><rect x="4" y="19" width="12" height="1" fill="#f7f4ea"/><rect x="16" y="19" width="1" height="1" fill="#181818"/><rect x="17" y="19" width="11" height="1" fill="#f7f4ea"/><rect x="28" y="19" width="1" height="1" fill="#181818"/><rect x="3" y="20" width="1" height="1" fill="#181818"/><rect x="4" y="20" width="11" height="1" fill="#f7f4ea"/><rect x="15" y="20" width="1" height="1" fill="#181818"/><rect x="16" y="20" width="12" height="1" fill="#f7f4ea"/><rect x="28" y="20" width="1" height="1" fill="#181818"/><rect x="3" y="21" width="1" height="1" fill="#181818"/><rect x="4" y="21" width="11" height="1" fill="#f7f4ea"/><rect x="15" y="21" width="1" height="1" fill="#181818"/><rect x="16" y="21" width="12" height="1" fill="#f7f4ea"/><rect x="28" y="21" width="1" height="1" fill="#181818"/><rect x="4" y="22" width="1" height="1" fill="#181818"/><rect x="5" y="22" width="10" height="1" fill="#f7f4ea"/><rect x="15" y="22" width="3" height="1" fill="#181818"/><rect x="18" y="22" width="9" height="1" fill="#f7f4ea"/><rect x="27" y="22" width="1" height="1" fill="#181818"/><rect x="4" y="23" width="1" height="1" fill="#181818"/><rect x="5" y="23" width="1" height="1" fill="#f7f4ea"/><rect x="6" y="23" width="2" height="1" fill="#181818"/><rect x="8" y="23" width="16" height="1" fill="#f7f4ea"/><rect x="24" y="23" width="2" height="1" fill="#181818"/><rect x="26" y="23" width="1" height="1" fill="#f7f4ea"/><rect x="27" y="23" width="1" height="1" fill="#181818"/><rect x="5" y="24" width="3" height="1" fill="#181818"/><rect x="8" y="24" width="16" height="1" fill="#f7f4ea"/><rect x="24" y="24" width="3" height="1" fill="#181818"/><rect x="5" y="25" width="1" height="1" fill="#181818"/><rect x="6" y="25" width="1" height="1" fill="#f7f4ea"/><rect x="7" y="25" width="3" height="1" fill="#181818"/><rect x="10" y="25" width="12" height="1" fill="#f7f4ea"/><rect x="22" y="25" width="3" height="1" fill="#181818"/><rect x="25" y="25" width="1" height="1" fill="#f7f4ea"/><rect x="26" y="25" width="1" height="1" fill="#181818"/><rect x="6" y="26" width="1" height="1" fill="#181818"/><rect x="7" y="26" width="1" height="1" fill="#f7f4ea"/><rect x="8" y="26" width="6" height="1" fill="#181818"/><rect x="14" y="26" width="4" height="1" fill="#f7f4ea"/><rect x="18" y="26" width="5" height="1" fill="#181818"/><rect x="23" y="26" width="1" height="1" fill="#f7f4ea"/><rect x="24" y="26" width="2" height="1" fill="#181818"/><rect x="6" y="27" width="1" height="1" fill="#181818"/><rect x="7" y="27" width="1" height="1" fill="#f7f4ea"/><rect x="8" y="27" width="1" height="1" fill="#181818"/><rect x="9" y="27" width="3" height="1" fill="#f7f4ea"/><rect x="12" y="27" width="7" height="1" fill="#181818"/><rect x="19" y="27" width="1" height="1" fill="#f7f4ea"/><rect x="20" y="27" width="1" height="1" fill="#181818"/><rect x="21" y="27" width="3" height="1" fill="#f7f4ea"/><rect x="24" y="27" width="2" height="1" fill="#181818"/><rect x="7" y="28" width="1" height="1" fill="#181818"/><rect x="8" y="28" width="1" height="1" fill="#f7f4ea"/><rect x="9" y="28" width="1" height="1" fill="#181818"/><rect x="10" y="28" width="2" height="1" fill="#f7f4ea"/><rect x="12" y="28" width="1" height="1" fill="#181818"/><rect x="13" y="28" width="3" height="1" fill="#f7f4ea"/><rect x="16" y="28" width="1" height="1" fill="#181818"/><rect x="17" y="28" width="3" height="1" fill="#f7f4ea"/><rect x="20" y="28" width="1" height="1" fill="#181818"/><rect x="21" y="28" width="2" height="1" fill="#f7f4ea"/><rect x="23" y="28" width="2" height="1" fill="#181818"/><rect x="8" y="29" width="2" height="1" fill="#181818"/><rect x="10" y="29" width="6" height="1" fill="#f7f4ea"/><rect x="16" y="29" width="1" height="1" fill="#181818"/><rect x="17" y="29" width="6" height="1" fill="#f7f4ea"/><rect x="23" y="29" width="1" height="1" fill="#181818"/><rect x="9" y="30" width="2" height="1" fill="#181818"/><rect x="11" y="30" width="11" height="1" fill="#f7f4ea"/><rect x="22" y="30" width="1" height="1" fill="#181818"/><rect x="10" y="31" width="2" height="1" fill="#181818"/><rect x="12" y="31" width="9" height="1" fill="#f7f4ea"/><rect x="21" y="31" width="1" height="1" fill="#181818"/><rect x="11" y="32" width="3" height="1" fill="#181818"/><rect x="14" y="32" width="5" height="1" fill="#f7f4ea"/><rect x="19" y="32" width="2" height="1" fill="#181818"/><rect x="12" y="33" width="1" height="1" fill="#181818"/><rect x="13" y="33" width="1" height="1" fill="#f7f4ea"/><rect x="14" y="33" width="6" height="1" fill="#181818"/><rect x="13" y="34" width="1" height="1" fill="#181818"/><rect x="14" y="34" width="4" height="1" fill="#f7f4ea"/><rect x="18" y="34" width="1" height="1" fill="#181818"/><rect x="14" y="35" width="1" height="1" fill="#181818"/><rect x="15" y="35" width="2" height="1" fill="#f7f4ea"/><rect x="17" y="35" width="1" height="1" fill="#181818"/><rect x="15" y="36" width="2" height="1" fill="#181818"/><rect x="15" y="37" width="2" height="1" fill="#181818"/></svg>
