<svg xmlns="http://www.w3.org/2000/svg" viewBox="0 0 34 16" shape-rendering="crispEdges" width="136" height="64"><rect x="13" y="0" width="3" height="1" fill="#9aa7b0"/><rect x="16" y="0" width="1" height="1" fill="#ffffff"/><rect x="17" y="0" width="3" height="1" fill="#9aa7b0"/><rect x="12" y="1" width="1" height="1" fill="#9aa7b0"/><rect x="13" y="1" width="7" height="1" fill="#ffffff"/><rect x="20" y="1" width="1" height="1" fill="#9aa7b0"/><rect x="23" y="1" width="1" height="1" fill="#9aa7b0"/><rect x="11" y="2" width="1" height="1" fill="#9aa7b0"/><rect x="12" y="2" width="9" height="1" fill="#ffffff"/><rect x="21" y="2" width="2" height="1" fill="#9aa7b0"/><rect x="23" y="2" width="1" height="1" fill="#ffffff"/><rect x="24" y="2" width="3" height="1" fill="#9aa7b0"/><rect x="9" y="3" width="2" height="1" fill="#9aa7b0"/><rect x="11" y="3" width="16" height="1" fill="#ffffff"/><rect x="27" y="3" width="1" height="1" fill="#9aa7b0"/><rect x="6" y="4" width="3" height="1" fill="#9aa7b0"/><rect x="9" y="4" width="1" height="1" fill="#ffffff"/><rect x="10" y="4" width="1" height="1" fill="#9aa7b0"/><rect x="11" y="4" width="17" height="1" fill="#ffffff"/><rect x="28" y="4" width="1" height="1" fill="#9aa7b0"/><rect x="5" y="5" width="1" height="1" fill="#9aa7b0"/><rect x="6" y="5" width="23" height="1" fill="#ffffff"/><rect x="29" y="5" width="1" height="1" fill="#9aa7b0"/><rect x="4" y="6" width="1" height="1" fill="#9aa7b0"/><rect x="5" y="6" width="24" height="1" fill="#ffffff"/><rect x="29" y="6" width="2" height="1" fill="#9aa7b0"/><rect x="4" y="7" width="1" height="1" fill="#9aa7b0"/><rect x="5" y="7" width="26" height="1" fill="#ffffff"/><rect x="31" y="7" width="1" height="1" fill="#9aa7b0"/><rect x="4" y="8" width="1" height="1" fill="#9aa7b0"/><rect x="5" y="8" width="27" height="1" fill="#ffffff"/><rect x="32" y="8" width="1" height="1" fill="#9aa7b0"/><rect x="3" y="9" width="1" height="1" fill="#9aa7b0"/><rect x="4" y="9" width="28" height="1" fill="#ffffff"/><rect x="32" y="9" width="1" height="1" fill="#9aa7b0"/><rect x="4" y="10" width="1" height="1" fill="#9aa7b0"/><rect x="5" y="10" width="28" height="1" fill="#ffffff"/><rect x="33" y="10" width="1" height="1" fill="#9aa7b0"/><rect x="4" y="11" width="1" height="1" fill="#9aa7b0"/><rect x="5" y="11" width="27" height="1" fill="#eceadf"/><rect x="32" y="11" width="1" height="1" fill="#9aa7b0"/><rect x="4" y="12" width="1" height="1" fill="#9aa7b0"/><rect x="5" y="12" width="27" height="1" fill="#cdc8ba"/><rect x="32" y="12" width="1" height="1" fill="#9aa7b0"/><rect x="5" y="13" width="27" height="1" fill="#9aa7b0"/></svg>
