<svg xmlns="http://www.w3.org/2000/svg" viewBox="0 0 34 16" shape-rendering="crispEdges" width="136" height="64"><rect x="16" y="1" width="1" height="1" fill="#9aa7b0"/><rect x="13" y="2" width="3" height="1" fill="#9aa7b0"/><rect x="16" y="2" width="1" height="1" fill="#ffffff"/><rect x="17" y="2" width="3" height="1" fill="#9aa7b0"/><rect x="12" y="3" width="1" height="1" fill="#9aa7b0"/><rect x="13" y="3" width="7" height="1" fill="#ffffff"/><rect x="20" y="3" width="1" height="1" fill="#9aa7b0"/><rect x="10" y="4" width="2" height="1" fill="#9aa7b0"/><rect x="12" y="4" width="9" height="1" fill="#ffffff"/><rect x="21" y="4" width="2" height="1" fill="#9aa7b0"/><rect x="8" y="5" width="2" height="1" fill="#9aa7b0"/><rect x="10" y="5" width="1" height="1" fill="#ffffff"/><rect x="11" y="5" width="1" height="1" fill="#9aa7b0"/><rect x="12" y="5" width="9" height="1" fill="#ffffff"/><rect x="21" y="5" width="1" height="1" fill="#9aa7b0"/><rect x="22" y="5" width="1" height="1" fill="#ffffff"/><rect x="23" y="5" width="2" height="1" fill="#9aa7b0"/><rect x="7" y="6" width="1" height="1" fill="#9aa7b0"/><rect x="8" y="6" width="17" height="1" fill="#ffffff"/><rect x="25" y="6" width="1" height="1" fill="#9aa7b0"/><rect x="6" y="7" width="1" height="1" fill="#9aa7b0"/><rect x="7" y="7" width="19" height="1" fill="#ffffff"/><rect x="26" y="7" width="1" height="1" fill="#9aa7b0"/><rect x="6" y="8" width="1" height="1" fill="#9aa7b0"/><rect x="7" y="8" width="19" height="1" fill="#ffffff"/><rect x="26" y="8" width="1" height="1" fill="#9aa7b0"/><rect x="5" y="9" width="1" height="1" fill="#9aa7b0"/><rect x="6" y="9" width="21" height="1" fill="#ffffff"/><rect x="27" y="9" width="1" height="1" fill="#9aa7b0"/><rect x="6" y="10" width="1" height="1" fill="#9aa7b0"/><rect x="7" y="10" width="19" height="1" fill="#ffffff"/><rect x="26" y="10" width="1" height="1" fill="#9aa7b0"/><rect x="6" y="11" width="1" height="1" fill="#9aa7b0"/><rect x="7" y="11" width="19" height="1" fill="#eceadf"/><rect x="26" y="11" width="1" height="1" fill="#9aa7b0"/><rect x="6" y="12" width="1" height="1" fill="#9aa7b0"/><rect x="7" y="12" width="19" height="1" fill="#cdc8ba"/><rect x="26" y="12" width="1" height="1" fill="#9aa7b0"/><rect x="7" y="13" width="19" height="1" fill="#9aa7b0"/></svg>
