<svg xmlns="http://www.w3.org/2000/svg" viewBox="0 0 30 30" shape-rendering="crispEdges" width="120" height="120"><rect x="14" y="0" width="2" height="1" fill="#e08a1f"/><rect x="13" y="1" width="1" height="1" fill="#e08a1f"/><rect x="14" y="1" width="2" height="1" fill="#ffd23f"/><rect x="16" y="1" width="1" height="1" fill="#e08a1f"/><rect x="3" y="2" width="1" height="1" fill="#e08a1f"/><rect x="13" y="2" width="1" height="1" fill="#e08a1f"/><rect x="14" y="2" width="2" height="1" fill="#ffd23f"/><rect x="16" y="2" width="1" height="1" fill="#e08a1f"/><rect x="26" y="2" width="1" height="1" fill="#e08a1f"/><rect x="2" y="3" width="1" height="1" fill="#e08a1f"/><rect x="3" y="3" width="1" height="1" fill="#ffd23f"/><rect x="4" y="3" width="1" height="1" fill="#e08a1f"/><rect x="13" y="3" width="1" height="1" fill="#e08a1f"/><rect x="14" y="3" width="2" height="1" fill="#ffd23f"/><rect x="16" y="3" width="1" height="1" fill="#e08a1f"/><rect x="25" y="3" width="1" height="1" fill="#e08a1f"/><rect x="26" y="3" width="1" height="1" fill="#ffd23f"/><rect x="27" y="3" width="1" height="1" fill="#e08a1f"/><rect x="2" y="4" width="1" height="1" fill="#e08a1f"/><rect x="3" y="4" width="2" height="1" fill="#ffd23f"/><rect x="5" y="4" width="1" height="1" fill="#e08a1f"/><rect x="13" y="4" width="1" height="1" fill="#e08a1f"/><rect x="14" y="4" width="2" height="1" fill="#ffd23f"/><rect x="16" y="4" width="1" height="1" fill="#e08a1f"/><rect x="24" y="4" width="1" height="1" fill="#e08a1f"/><rect x="25" y="4" width="2" height="1" fill="#ffd23f"/><rect x="27" y="4" width="1" height="1" fill="#e08a1f"/><rect x="3" y="5" width="1" height="1" fill="#e08a1f"/><rect x="4" y="5" width="2" height="1" fill="#ffd23f"/><rect x="6" y="5" width="1" height="1" fill="#e08a1f"/><rect x="13" y="5" width="1" height="1" fill="#e08a1f"/><rect x="14" y="5" width="2" height="1" fill="#ffd23f"/><rect x="16" y="5" width="1" height="1" fill="#e08a1f"/><rect x="23" y="5" width="1" height="1" fill="#e08a1f"/><rect x="24" y="5" width="2" height="1" fill="#ffd23f"/><rect x="26" y="5" width="1" height="1" fill="#e08a1f"/><rect x="4" y="6" width="1" height="1" fill="#e08a1f"/><rect x="5" y="6" width="2" height="1" fill="#ffd23f"/><rect x="7" y="6" width="1" height="1" fill="#e08a1f"/><rect x="11" y="6" width="4" height="1" fill="#e08a1f"/><rect x="15" y="6" width="1" height="1" fill="#f7b733"/><rect x="16" y="6" width="4" height="1" fill="#e08a1f"/><rect x="22" y="6" width="1" height="1" fill="#e08a1f"/><rect x="23" y="6" width="2" height="1" fill="#ffd23f"/><rect x="25" y="6" width="1" height="1" fill="#e08a1f"/><rect x="5" y="7" width="1" height="1" fill="#e08a1f"/><rect x="6" y="7" width="2" height="1" fill="#ffd23f"/><rect x="8" y="7" width="1" height="1" fill="#e08a1f"/><rect x="10" y="7" width="1" height="1" fill="#e08a1f"/><rect x="11" y="7" width="9" height="1" fill="#f7b733"/><rect x="20" y="7" width="2" height="1" fill="#e08a1f"/><rect x="22" y="7" width="2" height="1" fill="#ffd23f"/><rect x="24" y="7" width="1" height="1" fill="#e08a1f"/><rect x="6" y="8" width="1" height="1" fill="#e08a1f"/><rect x="7" y="8" width="2" height="1" fill="#ffd23f"/><rect x="9" y="8" width="1" height="1" fill="#e08a1f"/><rect x="10" y="8" width="11" height="1" fill="#f7b733"/><rect x="21" y="8" width="2" height="1" fill="#ffd23f"/><rect x="23" y="8" width="1" height="1" fill="#e08a1f"/><rect x="7" y="9" width="1" height="1" fill="#e08a1f"/><rect x="8" y="9" width="1" height="1" fill="#ffd23f"/><rect x="9" y="9" width="3" height="1" fill="#f7b733"/><rect x="12" y="9" width="3" height="1" fill="#ffe98a"/><rect x="15" y="9" width="7" height="1" fill="#f7b733"/><rect x="22" y="9" width="1" height="1" fill="#e08a1f"/><rect x="7" y="10" width="1" height="1" fill="#e08a1f"/><rect x="8" y="10" width="2" height="1" fill="#f7b733"/><rect x="10" y="10" width="2" height="1" fill="#b06a12"/><rect x="12" y="10" width="3" height="1" fill="#ffe98a"/><rect x="15" y="10" width="4" height="1" fill="#f7b733"/><rect x="19" y="10" width="2" height="1" fill="#b06a12"/><rect x="21" y="10" width="2" height="1" fill="#f7b733"/><rect x="23" y="10" width="1" height="1" fill="#e08a1f"/><rect x="6" y="11" width="1" height="1" fill="#e08a1f"/><rect x="7" y="11" width="2" height="1" fill="#f7b733"/><rect x="9" y="11" width="1" height="1" fill="#b06a12"/><rect x="10" y="11" width="5" height="1" fill="#ffe98a"/><rect x="15" y="11" width="6" height="1" fill="#f7b733"/><rect x="21" y="11" width="1" height="1" fill="#b06a12"/><rect x="22" y="11" width="2" height="1" fill="#f7b733"/><rect x="24" y="11" width="1" height="1" fill="#e08a1f"/><rect x="6" y="12" width="1" height="1" fill="#e08a1f"/><rect x="7" y="12" width="2" height="1" fill="#f7b733"/><rect x="9" y="12" width="6" height="1" fill="#ffe98a"/><rect x="15" y="12" width="9" height="1" fill="#f7b733"/><rect x="24" y="12" width="1" height="1" fill="#e08a1f"/><rect x="1" y="13" width="6" height="1" fill="#e08a1f"/><rect x="7" y="13" width="2" height="1" fill="#f7b733"/><rect x="9" y="13" width="1" height="1" fill="#ffe98a"/><rect x="10" y="13" width="3" height="1" fill="#b06a12"/><rect x="13" y="13" width="2" height="1" fill="#ffe98a"/><rect x="15" y="13" width="3" height="1" fill="#f7b733"/><rect x="18" y="13" width="3" height="1" fill="#b06a12"/><rect x="21" y="13" width="3" height="1" fill="#f7b733"/><rect x="24" y="13" width="5" height="1" fill="#e08a1f"/><rect x="0" y="14" width="1" height="1" fill="#e08a1f"/><rect x="1" y="14" width="5" height="1" fill="#ffd23f"/><rect x="6" y="14" width="1" height="1" fill="#e08a1f"/><rect x="7" y="14" width="2" height="1" fill="#f7b733"/><rect x="9" y="14" width="6" height="1" fill="#ffe98a"/><rect x="15" y="14" width="9" height="1" fill="#f7b733"/><rect x="24" y="14" width="5" height="1" fill="#ffd23f"/><rect x="29" y="14" width="1" height="1" fill="#e08a1f"/><rect x="0" y="15" width="1" height="1" fill="#e08a1f"/><rect x="1" y="15" width="5" height="1" fill="#ffd23f"/><rect x="6" y="15" width="19" height="1" fill="#f7b733"/><rect x="25" y="15" width="4" height="1" fill="#ffd23f"/><rect x="29" y="15" width="1" height="1" fill="#e08a1f"/><rect x="1" y="16" width="6" height="1" fill="#e08a1f"/><rect x="7" y="16" width="17" height="1" fill="#ffd23f"/><rect x="24" y="16" width="5" height="1" fill="#e08a1f"/><rect x="6" y="17" width="1" height="1" fill="#e08a1f"/><rect x="7" y="17" width="3" height="1" fill="#ffd23f"/><rect x="10" y="17" width="1" height="1" fill="#b06a12"/><rect x="11" y="17" width="9" height="1" fill="#ffd23f"/><rect x="20" y="17" width="1" height="1" fill="#b06a12"/><rect x="21" y="17" width="3" height="1" fill="#ffd23f"/><rect x="24" y="17" width="1" height="1" fill="#e08a1f"/><rect x="6" y="18" width="1" height="1" fill="#e08a1f"/><rect x="7" y="18" width="3" height="1" fill="#ffd23f"/><rect x="10" y="18" width="1" height="1" fill="#b06a12"/><rect x="11" y="18" width="8" height="1" fill="#ffd23f"/><rect x="19" y="18" width="1" height="1" fill="#b06a12"/><rect x="20" y="18" width="4" height="1" fill="#ffd23f"/><rect x="24" y="18" width="1" height="1" fill="#e08a1f"/><rect x="6" y="19" width="1" height="1" fill="#e08a1f"/><rect x="7" y="19" width="4" height="1" fill="#ffd23f"/><rect x="11" y="19" width="9" height="1" fill="#b06a12"/><rect x="20" y="19" width="4" height="1" fill="#ffd23f"/><rect x="24" y="19" width="1" height="1" fill="#e08a1f"/><rect x="7" y="20" width="1" height="1" fill="#e08a1f"/><rect x="8" y="20" width="4" height="1" fill="#ffd23f"/><rect x="12" y="20" width="2" height="1" fill="#b06a12"/><rect x="14" y="20" width="2" height="1" fill="#ffd23f"/><rect x="16" y="20" width="2" height="1" fill="#b06a12"/><rect x="18" y="20" width="5" height="1" fill="#ffd23f"/><rect x="23" y="20" width="1" height="1" fill="#e08a1f"/><rect x="7" y="21" width="1" height="1" fill="#e08a1f"/><rect x="8" y="21" width="6" height="1" fill="#ffd23f"/><rect x="14" y="21" width="2" height="1" fill="#b06a12"/><rect x="16" y="21" width="6" height="1" fill="#ffd23f"/><rect x="22" y="21" width="1" height="1" fill="#e08a1f"/><rect x="6" y="22" width="1" height="1" fill="#e08a1f"/><rect x="7" y="22" width="2" height="1" fill="#ffd23f"/><rect x="9" y="22" width="1" height="1" fill="#e08a1f"/><rect x="10" y="22" width="13" height="1" fill="#ffd23f"/><rect x="23" y="22" width="1" height="1" fill="#e08a1f"/><rect x="5" y="23" width="1" height="1" fill="#e08a1f"/><rect x="6" y="23" width="2" height="1" fill="#ffd23f"/><rect x="8" y="23" width="1" height="1" fill="#e08a1f"/><rect x="10" y="23" width="1" height="1" fill="#e08a1f"/><rect x="11" y="23" width="9" height="1" fill="#ffd23f"/><rect x="20" y="23" width="2" height="1" fill="#e08a1f"/><rect x="22" y="23" width="2" height="1" fill="#ffd23f"/><rect x="24" y="23" width="1" height="1" fill="#e08a1f"/><rect x="4" y="24" width="1" height="1" fill="#e08a1f"/><rect x="5" y="24" width="2" height="1" fill="#ffd23f"/><rect x="7" y="24" width="1" height="1" fill="#e08a1f"/><rect x="11" y="24" width="3" height="1" fill="#e08a1f"/><rect x="14" y="24" width="2" height="1" fill="#ffd23f"/><rect x="16" y="24" width="4" height="1" fill="#e08a1f"/><rect x="22" y="24" width="1" height="1" fill="#e08a1f"/><rect x="23" y="24" width="2" height="1" fill="#ffd23f"/><rect x="25" y="24" width="1" height="1" fill="#e08a1f"/><rect x="3" y="25" width="1" height="1" fill="#e08a1f"/><rect x="4" y="25" width="2" height="1" fill="#ffd23f"/><rect x="6" y="25" width="1" height="1" fill="#e08a1f"/><rect x="13" y="25" width="1" height="1" fill="#e08a1f"/><rect x="14" y="25" width="2" height="1" fill="#ffd23f"/><rect x="16" y="25" width="1" height="1" fill="#e08a1f"/><rect x="23" y="25" width="1" height="1" fill="#e08a1f"/><rect x="24" y="25" width="2" height="1" fill="#ffd23f"/><rect x="26" y="25" width="1" height="1" fill="#e08a1f"/><rect x="2" y="26" width="1" height="1" fill="#e08a1f"/><rect x="3" y="26" width="2" height="1" fill="#ffd23f"/><rect x="5" y="26" width="1" height="1" fill="#e08a1f"/><rect x="13" y="26" width="1" height="1" fill="#e08a1f"/><rect x="14" y="26" width="2" height="1" fill="#ffd23f"/><rect x="16" y="26" width="1" height="1" fill="#e08a1f"/><rect x="24" y="26" width="1" height="1" fill="#e08a1f"/><rect x="25" y="26" width="2" height="1" fill="#ffd23f"/><rect x="27" y="26" width="1" height="1" fill="#e08a1f"/><rect x="2" y="27" width="1" height="1" fill="#e08a1f"/><rect x="3" y="27" width="1" height="1" fill="#ffd23f"/><rect x="4" y="27" width="1" height="1" fill="#e08a1f"/><rect x="13" y="27" width="1" height="1" fill="#e08a1f"/><rect x="14" y="27" width="2" height="1" fill="#ffd23f"/><rect x="16" y="27" width="1" height="1" fill="#e08a1f"/><rect x="25" y="27" width="1" height="1" fill="#e08a1f"/><rect x="26" y="27" width="1" height="1" fill="#ffd23f"/><rect x="27" y="27" width="1" height="1" fill="#e08a1f"/><rect x="3" y="28" width="1" height="1" fill="#e08a1f"/><rect x="13" y="28" width="1" height="1" fill="#e08a1f"/><rect x="14" y="28" width="2" height="1" fill="#ffd23f"/><rect x="16" y="28" width="1" height="1" fill="#e08a1f"/><rect x="26" y="28" width="1" height="1" fill="#e08a1f"/><rect x="14" y="29" width="2" height="1" fill="#e08a1f"/></svg>
