<svg xmlns="http://www.w3.org/2000/svg" viewBox="0 0 28 28" shape-rendering="crispEdges" width="112" height="112"><rect x="14" y="1" width="1" height="1" fill="#181818"/><rect x="10" y="2" width="4" height="1" fill="#181818"/><rect x="14" y="2" width="1" height="1" fill="#f7f4ea"/><rect x="15" y="2" width="4" height="1" fill="#181818"/><rect x="8" y="3" width="2" height="1" fill="#181818"/><rect x="10" y="3" width="9" height="1" fill="#f7f4ea"/><rect x="19" y="3" width="2" height="1" fill="#181818"/><rect x="7" y="4" width="1" height="1" fill="#181818"/><rect x="8" y="4" width="13" height="1" fill="#f7f4ea"/><rect x="21" y="4" width="1" height="1" fill="#181818"/><rect x="6" y="5" width="1" height="1" fill="#181818"/><rect x="7" y="5" width="15" height="1" fill="#f7f4ea"/><rect x="22" y="5" width="1" height="1" fill="#181818"/><rect x="5" y="6" width="1" height="1" fill="#181818"/><rect x="6" y="6" width="1" height="1" fill="#f7f4ea"/><rect x="7" y="6" width="2" height="1" fill="#181818"/><rect x="9" y="6" width="10" height="1" fill="#f7f4ea"/><rect x="19" y="6" width="2" height="1" fill="#181818"/><rect x="21" y="6" width="2" height="1" fill="#f7f4ea"/><rect x="23" y="6" width="1" height="1" fill="#181818"/><rect x="4" y="7" width="1" height="1" fill="#181818"/><rect x="5" y="7" width="1" height="1" fill="#f7f4ea"/><rect x="6" y="7" width="1" height="1" fill="#181818"/><rect x="7" y="7" width="2" height="1" fill="#f7f4ea"/><rect x="9" y="7" width="2" height="1" fill="#181818"/><rect x="11" y="7" width="6" height="1" fill="#f7f4ea"/><rect x="17" y="7" width="2" height="1" fill="#181818"/><rect x="19" y="7" width="2" height="1" fill="#f7f4ea"/><rect x="21" y="7" width="1" height="1" fill="#181818"/><rect x="22" y="7" width="2" height="1" fill="#f7f4ea"/><rect x="24" y="7" width="1" height="1" fill="#181818"/><rect x="4" y="8" width="1" height="1" fill="#181818"/><rect x="5" y="8" width="19" height="1" fill="#f7f4ea"/><rect x="24" y="8" width="1" height="1" fill="#181818"/><rect x="3" y="9" width="1" height="1" fill="#181818"/><rect x="4" y="9" width="4" height="1" fill="#f7f4ea"/><rect x="8" y="9" width="3" height="1" fill="#181818"/><rect x="11" y="9" width="6" height="1" fill="#f7f4ea"/><rect x="17" y="9" width="3" height="1" fill="#181818"/><rect x="20" y="9" width="5" height="1" fill="#f7f4ea"/><rect x="25" y="9" width="1" height="1" fill="#181818"/><rect x="3" y="10" width="1" height="1" fill="#181818"/><rect x="4" y="10" width="4" height="1" fill="#f7f4ea"/><rect x="8" y="10" width="2" height="1" fill="#181818"/><rect x="10" y="10" width="8" height="1" fill="#f7f4ea"/><rect x="18" y="10" width="2" height="1" fill="#181818"/><rect x="20" y="10" width="5" height="1" fill="#f7f4ea"/><rect x="25" y="10" width="1" height="1" fill="#181818"/><rect x="3" y="11" width="1" height="1" fill="#181818"/><rect x="4" y="11" width="10" height="1" fill="#f7f4ea"/><rect x="14" y="11" width="1" height="1" fill="#181818"/><rect x="15" y="11" width="10" height="1" fill="#f7f4ea"/><rect x="25" y="11" width="1" height="1" fill="#181818"/><rect x="3" y="12" width="1" height="1" fill="#181818"/><rect x="4" y="12" width="10" height="1" fill="#f7f4ea"/><rect x="14" y="12" width="1" height="1" fill="#181818"/><rect x="15" y="12" width="10" height="1" fill="#f7f4ea"/><rect x="25" y="12" width="1" height="1" fill="#181818"/><rect x="2" y="13" width="1" height="1" fill="#181818"/><rect x="3" y="13" width="10" height="1" fill="#f7f4ea"/><rect x="13" y="13" width="1" height="1" fill="#181818"/><rect x="14" y="13" width="12" height="1" fill="#f7f4ea"/><rect x="26" y="13" width="1" height="1" fill="#181818"/><rect x="3" y="14" width="1" height="1" fill="#181818"/><rect x="4" y="14" width="9" height="1" fill="#f7f4ea"/><rect x="13" y="14" width="2" height="1" fill="#181818"/><rect x="15" y="14" width="10" height="1" fill="#f7f4ea"/><rect x="25" y="14" width="1" height="1" fill="#181818"/><rect x="3" y="15" width="1" height="1" fill="#181818"/><rect x="4" y="15" width="21" height="1" fill="#f7f4ea"/><rect x="25" y="15" width="1" height="1" fill="#181818"/><rect x="3" y="16" width="1" height="1" fill="#181818"/><rect x="4" y="16" width="1" height="1" fill="#f7f4ea"/><rect x="5" y="16" width="2" height="1" fill="#181818"/><rect x="7" y="16" width="14" height="1" fill="#f7f4ea"/><rect x="21" y="16" width="2" height="1" fill="#181818"/><rect x="23" y="16" width="2" height="1" fill="#f7f4ea"/><rect x="25" y="16" width="1" height="1" fill="#181818"/><rect x="3" y="17" width="1" height="1" fill="#181818"/><rect x="4" y="17" width="1" height="1" fill="#f7f4ea"/><rect x="5" y="17" width="2" height="1" fill="#181818"/><rect x="7" y="17" width="14" height="1" fill="#f7f4ea"/><rect x="21" y="17" width="2" height="1" fill="#181818"/><rect x="23" y="17" width="2" height="1" fill="#f7f4ea"/><rect x="25" y="17" width="1" height="1" fill="#181818"/><rect x="4" y="18" width="1" height="1" fill="#181818"/><rect x="5" y="18" width="1" height="1" fill="#f7f4ea"/><rect x="6" y="18" width="3" height="1" fill="#181818"/><rect x="9" y="18" width="10" height="1" fill="#f7f4ea"/><rect x="19" y="18" width="3" height="1" fill="#181818"/><rect x="22" y="18" width="2" height="1" fill="#f7f4ea"/><rect x="24" y="18" width="1" height="1" fill="#181818"/><rect x="4" y="19" width="1" height="1" fill="#181818"/><rect x="5" y="19" width="2" height="1" fill="#f7f4ea"/><rect x="7" y="19" width="6" height="1" fill="#181818"/><rect x="13" y="19" width="2" height="1" fill="#f7f4ea"/><rect x="15" y="19" width="6" height="1" fill="#181818"/><rect x="21" y="19" width="3" height="1" fill="#f7f4ea"/><rect x="24" y="19" width="1" height="1" fill="#181818"/><rect x="5" y="20" width="1" height="1" fill="#181818"/><rect x="6" y="20" width="1" height="1" fill="#f7f4ea"/><rect x="7" y="20" width="1" height="1" fill="#181818"/><rect x="8" y="20" width="3" height="1" fill="#f7f4ea"/><rect x="11" y="20" width="5" height="1" fill="#181818"/><rect x="16" y="20" width="1" height="1" fill="#f7f4ea"/><rect x="17" y="20" width="1" height="1" fill="#181818"/><rect x="18" y="20" width="2" height="1" fill="#f7f4ea"/><rect x="20" y="20" width="1" height="1" fill="#181818"/><rect x="21" y="20" width="2" height="1" fill="#f7f4ea"/><rect x="23" y="20" width="1" height="1" fill="#181818"/><rect x="6" y="21" width="1" height="1" fill="#181818"/><rect x="7" y="21" width="1" height="1" fill="#f7f4ea"/><rect x="8" y="21" width="1" height="1" fill="#181818"/><rect x="9" y="21" width="5" height="1" fill="#f7f4ea"/><rect x="14" y="21" width="1" height="1" fill="#181818"/><rect x="15" y="21" width="4" height="1" fill="#f7f4ea"/><rect x="19" y="21" width="1" height="1" fill="#181818"/><rect x="20" y="21" width="2" height="1" fill="#f7f4ea"/><rect x="22" y="21" width="1" height="1" fill="#181818"/><rect x="7" y="22" width="1" height="1" fill="#181818"/><rect x="8" y="22" width="1" height="1" fill="#f7f4ea"/><rect x="9" y="22" width="1" height="1" fill="#181818"/><rect x="10" y="22" width="8" height="1" fill="#f7f4ea"/><rect x="18" y="22" width="1" height="1" fill="#181818"/><rect x="19" y="22" width="2" height="1" fill="#f7f4ea"/><rect x="21" y="22" width="1" height="1" fill="#181818"/><rect x="8" y="23" width="3" height="1" fill="#181818"/><rect x="11" y="23" width="6" height="1" fill="#f7f4ea"/><rect x="17" y="23" width="1" height="1" fill="#181818"/><rect x="18" y="23" width="1" height="1" fill="#f7f4ea"/><rect x="19" y="23" width="2" height="1" fill="#181818"/><rect x="10" y="24" width="3" height="1" fill="#181818"/><rect x="13" y="24" width="2" height="1" fill="#f7f4ea"/><rect x="15" y="24" width="4" height="1" fill="#181818"/><rect x="12" y="25" width="3" height="1" fill="#181818"/><rect x="15" y="25" width="1" height="1" fill="#f7f4ea"/><rect x="16" y="25" width="1" height="1" fill="#181818"/><rect x="13" y="26" width="1" height="1" fill="#181818"/><rect x="14" y="26" width="1" height="1" fill="#f7f4ea"/><rect x="15" y="26" width="1" height="1" fill="#181818"/><rect x="14" y="27" width="1" height="1" fill="#181818"/></svg>
