<svg xmlns="http://www.w3.org/2000/svg" viewBox="0 0 32 32" shape-rendering="crispEdges" width="128" height="128"><rect x="14" y="1" width="4" height="1" fill="#181818"/><rect x="13" y="2" width="1" height="1" fill="#181818"/><rect x="14" y="2" width="4" height="1" fill="#f7f4ea"/><rect x="18" y="2" width="1" height="1" fill="#181818"/><rect x="11" y="3" width="1" height="1" fill="#181818"/><rect x="12" y="3" width="8" height="1" fill="#f7f4ea"/><rect x="20" y="3" width="1" height="1" fill="#181818"/><rect x="9" y="4" width="1" height="1" fill="#181818"/><rect x="10" y="4" width="12" height="1" fill="#f7f4ea"/><rect x="22" y="4" width="1" height="1" fill="#181818"/><rect x="7" y="5" width="1" height="1" fill="#181818"/><rect x="8" y="5" width="16" height="1" fill="#f7f4ea"/><rect x="24" y="5" width="1" height="1" fill="#181818"/><rect x="6" y="6" width="1" height="1" fill="#181818"/><rect x="7" y="6" width="18" height="1" fill="#f7f4ea"/><rect x="25" y="6" width="1" height="1" fill="#181818"/><rect x="5" y="7" width="1" height="1" fill="#181818"/><rect x="6" y="7" width="20" height="1" fill="#f7f4ea"/><rect x="26" y="7" width="1" height="1" fill="#181818"/><rect x="4" y="8" width="1" height="1" fill="#181818"/><rect x="5" y="8" width="3" height="1" fill="#f7f4ea"/><rect x="8" y="8" width="1" height="1" fill="#181818"/><rect x="9" y="8" width="2" height="1" fill="#f7f4ea"/><rect x="11" y="8" width="1" height="1" fill="#181818"/><rect x="12" y="8" width="8" height="1" fill="#f7f4ea"/><rect x="20" y="8" width="1" height="1" fill="#181818"/><rect x="21" y="8" width="2" height="1" fill="#f7f4ea"/><rect x="23" y="8" width="1" height="1" fill="#181818"/><rect x="24" y="8" width="3" height="1" fill="#f7f4ea"/><rect x="27" y="8" width="1" height="1" fill="#181818"/><rect x="4" y="9" width="1" height="1" fill="#181818"/><rect x="5" y="9" width="4" height="1" fill="#f7f4ea"/><rect x="9" y="9" width="2" height="1" fill="#181818"/><rect x="11" y="9" width="10" height="1" fill="#f7f4ea"/><rect x="21" y="9" width="2" height="1" fill="#181818"/><rect x="23" y="9" width="4" height="1" fill="#f7f4ea"/><rect x="27" y="9" width="1" height="1" fill="#181818"/><rect x="3" y="10" width="1" height="1" fill="#181818"/><rect x="4" y="10" width="5" height="1" fill="#f7f4ea"/><rect x="9" y="10" width="2" height="1" fill="#181818"/><rect x="11" y="10" width="10" height="1" fill="#f7f4ea"/><rect x="21" y="10" width="2" height="1" fill="#181818"/><rect x="23" y="10" width="5" height="1" fill="#f7f4ea"/><rect x="28" y="10" width="1" height="1" fill="#181818"/><rect x="3" y="11" width="1" height="1" fill="#181818"/><rect x="4" y="11" width="4" height="1" fill="#f7f4ea"/><rect x="8" y="11" width="1" height="1" fill="#181818"/><rect x="9" y="11" width="2" height="1" fill="#f7f4ea"/><rect x="11" y="11" width="1" height="1" fill="#181818"/><rect x="12" y="11" width="8" height="1" fill="#f7f4ea"/><rect x="20" y="11" width="1" height="1" fill="#181818"/><rect x="21" y="11" width="2" height="1" fill="#f7f4ea"/><rect x="23" y="11" width="1" height="1" fill="#181818"/><rect x="24" y="11" width="4" height="1" fill="#f7f4ea"/><rect x="28" y="11" width="1" height="1" fill="#181818"/><rect x="3" y="12" width="1" height="1" fill="#181818"/><rect x="4" y="12" width="12" height="1" fill="#f7f4ea"/><rect x="16" y="12" width="1" height="1" fill="#181818"/><rect x="17" y="12" width="11" height="1" fill="#f7f4ea"/><rect x="28" y="12" width="1" height="1" fill="#181818"/><rect x="3" y="13" width="1" height="1" fill="#181818"/><rect x="4" y="13" width="12" height="1" fill="#f7f4ea"/><rect x="16" y="13" width="1" height="1" fill="#181818"/><rect x="17" y="13" width="11" height="1" fill="#f7f4ea"/><rect x="28" y="13" width="1" height="1" fill="#181818"/><rect x="3" y="14" width="1" height="1" fill="#181818"/><rect x="4" y="14" width="11" height="1" fill="#f7f4ea"/><rect x="15" y="14" width="1" height="1" fill="#181818"/><rect x="16" y="14" width="12" height="1" fill="#f7f4ea"/><rect x="28" y="14" width="1" height="1" fill="#181818"/><rect x="3" y="15" width="1" height="1" fill="#181818"/><rect x="4" y="15" width="11" height="1" fill="#f7f4ea"/><rect x="15" y="15" width="1" height="1" fill="#181818"/><rect x="16" y="15" width="12" height="1" fill="#f7f4ea"/><rect x="28" y="15" width="1" height="1" fill="#181818"/><rect x="4" y="16" width="1" height="1" fill="#181818"/><rect x="5" y="16" width="10" height="1" fill="#f7f4ea"/><rect x="15" y="16" width="3" height="1" fill="#181818"/><rect x="18" y="16" width="9" height="1" fill="#f7f4ea"/><rect x="27" y="16" width="1" height="1" fill="#181818"/><rect x="4" y="17" width="1" height="1" fill="#181818"/><rect x="5" y="17" width="1" height="1" fill="#f7f4ea"/><rect x="6" y="17" width="2" height="1" fill="#181818"/><rect x="8" y="17" width="16" height="1" fill="#f7f4ea"/><rect x="24" y="17" width="2" height="1" fill="#181818"/><rect x="26" y="17" width="1" height="1" fill="#f7f4ea"/><rect x="27" y="17" width="1" height="1" fill="#181818"/><rect x="5" y="18" width="3" height="1" fill="#181818"/><rect x="8" y="18" width="16" height="1" fill="#f7f4ea"/><rect x="24" y="18" width="3" height="1" fill="#181818"/><rect x="5" y="19" width="1" height="1" fill="#181818"/><rect x="6" y="19" width="1" height="1" fill="#f7f4ea"/><rect x="7" y="19" width="3" height="1" fill="#181818"/><rect x="10" y="19" width="12" height="1" fill="#f7f4ea"/><rect x="22" y="19" width="3" height="1" fill="#181818"/><rect x="25" y="19" width="1" height="1" fill="#f7f4ea"/><rect x="26" y="19" width="1" height="1" fill="#181818"/><rect x="6" y="20" width="1" height="1" fill="#181818"/><rect x="7" y="20" width="1" height="1" fill="#f7f4ea"/><rect x="8" y="20" width="6" height="1" fill="#181818"/><rect x="14" y="20" width="4" height="1" fill="#f7f4ea"/><rect x="18" y="20" width="5" height="1" fill="#181818"/><rect x="23" y="20" width="1" height="1" fill="#f7f4ea"/><rect x="24" y="20" width="2" height="1" fill="#181818"/><rect x="6" y="21" width="1" height="1" fill="#181818"/><rect x="7" y="21" width="1" height="1" fill="#f7f4ea"/><rect x="8" y="21" width="1" height="1" fill="#181818"/><rect x="9" y="21" width="3" height="1" fill="#f7f4ea"/><rect x="12" y="21" width="7" height="1" fill="#181818"/><rect x="19" y="21" width="1" height="1" fill="#f7f4ea"/><rect x="20" y="21" width="1" height="1" fill="#181818"/><rect x="21" y="21" width="3" height="1" fill="#f7f4ea"/><rect x="24" y="21" width="2" height="1" fill="#181818"/><rect x="7" y="22" width="1" height="1" fill="#181818"/><rect x="8" y="22" width="1" height="1" fill="#f7f4ea"/><rect x="9" y="22" width="1" height="1" fill="#181818"/><rect x="10" y="22" width="2" height="1" fill="#f7f4ea"/><rect x="12" y="22" width="1" height="1" fill="#181818"/><rect x="13" y="22" width="3" height="1" fill="#f7f4ea"/><rect x="16" y="22" width="1" height="1" fill="#181818"/><rect x="17" y="22" width="3" height="1" fill="#f7f4ea"/><rect x="20" y="22" width="1" height="1" fill="#181818"/><rect x="21" y="22" width="2" height="1" fill="#f7f4ea"/><rect x="23" y="22" width="2" height="1" fill="#181818"/><rect x="8" y="23" width="2" height="1" fill="#181818"/><rect x="10" y="23" width="6" height="1" fill="#f7f4ea"/><rect x="16" y="23" width="1" height="1" fill="#181818"/><rect x="17" y="23" width="6" height="1" fill="#f7f4ea"/><rect x="23" y="23" width="1" height="1" fill="#181818"/><rect x="9" y="24" width="2" height="1" fill="#181818"/><rect x="11" y="24" width="11" height="1" fill="#f7f4ea"/><rect x="22" y="24" width="1" height="1" fill="#181818"/><rect x="10" y="25" width="2" height="1" fill="#181818"/><rect x="12" y="25" width="9" height="1" fill="#f7f4ea"/><rect x="21" y="25" width="1" height="1" fill="#181818"/><rect x="11" y="26" width="3" height="1" fill="#181818"/><rect x="14" y="26" width="5" height="1" fill="#f7f4ea"/><rect x="19" y="26" width="2" height="1" fill="#181818"/><rect x="12" y="27" width="1" height="1" fill="#181818"/><rect x="13" y="27" width="1" height="1" fill="#f7f4ea"/><rect x="14" y="27" width="6" height="1" fill="#181818"/><rect x="13" y="28" width="1" height="1" fill="#181818"/><rect x="14" y="28" width="4" height="1" fill="#f7f4ea"/><rect x="18" y="28" width="1" height="1" fill="#181818"/><rect x="14" y="29" width="1" height="1" fill="#181818"/><rect x="15" y="29" width="2" height="1" fill="#f7f4ea"/><rect x="17" y="29" width="1" height="1" fill="#181818"/><rect x="15" y="30" width="2" height="1" fill="#181818"/><rect x="15" y="31" width="2" height="1" fill="#181818"/></svg>
